<?xml version="1.0" encoding="utf-8"?>
<!-- Generator: Adobe Illustrator 16.0.0, SVG Export Plug-In . SVG Version: 6.00 Build 0)  -->
<!DOCTYPE svg PUBLIC "-//W3C//DTD SVG 1.1//EN" "http://www.w3.org/Graphics/SVG/1.1/DTD/svg11.dtd">
<svg version="1.1" id="Layer_1" xmlns="http://www.w3.org/2000/svg" xmlns:xlink="http://www.w3.org/1999/xlink" x="0px" y="0px"
	 width="841.89px" height="595.281px" viewBox="0 0 841.89 595.281" enable-background="new 0 0 841.89 595.281"
	 xml:space="preserve">
<path fill="#FFFFFF" d="M327.932,556.912H216.317c-30.811,0-55.808-24.996-55.808-55.807V91.85
	c0-30.811,24.997-55.808,55.808-55.808h111.615c30.811,0,55.808,24.997,55.808,55.808v409.255
	C383.74,531.916,358.743,556.912,327.932,556.912z M681.38,501.105V91.85c0-30.811-24.998-55.808-55.809-55.808H513.957
	c-30.811,0-55.807,24.997-55.807,55.808v409.255c0,30.811,24.996,55.807,55.807,55.807h111.615
	C656.382,556.912,681.38,531.916,681.38,501.105z"/>
</svg>
